<svg xmlns="http://www.w3.org/2000/svg" width="23.155" height="23" viewBox="0 0 23.155 23"><defs><style>.a{fill:#d0dbe5;stroke:rgba(0,0,0,0);}</style></defs><g transform="translate(0.578 0.5)"><path class="a" d="M1100.249,2159.264a6.17,6.17,0,1,0-6.169,6.109A6.146,6.146,0,0,0,1100.249,2159.264Zm-10.305,0a4.136,4.136,0,1,1,4.136,4.1A4.121,4.121,0,0,1,1089.944,2159.264Z" transform="translate(-1083.08 -2153.156)"/><path class="a" d="M1082.139,2177.162l-.166,1.149h22l-.166-1.149c-.64-4.428-5.3-7.766-10.835-7.766S1082.779,2172.734,1082.139,2177.162Zm10.834-5.752c4.012,0,7.444,2.033,8.523,4.888H1084.45C1085.53,2173.443,1088.962,2171.41,1092.973,2171.41Z" transform="translate(-1081.973 -2156.312)"/></g></svg>