<svg xmlns="http://www.w3.org/2000/svg" width="28.925" height="28.925" viewBox="0 0 28.925 28.925"><defs><style>.a,.b{fill:#dbdbdb;}.a{opacity:0.4;}</style></defs><g transform="translate(0 -8)"><path class="a" d="M14.462,8A14.462,14.462,0,1,0,28.925,22.462,14.46,14.46,0,0,0,14.462,8Zm0,5.6A5.132,5.132,0,1,1,9.331,18.73,5.132,5.132,0,0,1,14.462,13.6Zm0,20.061a11.174,11.174,0,0,1-8.543-3.977,6.5,6.5,0,0,1,5.744-3.487,1.444,1.444,0,0,1,.414.064,7.27,7.27,0,0,0,4.77,0,1.444,1.444,0,0,1,.414-.064,6.5,6.5,0,0,1,5.744,3.487A11.174,11.174,0,0,1,14.462,33.659Z"/><path class="b" d="M110.043,114.264a5.132,5.132,0,1,0-5.132-5.132A5.132,5.132,0,0,0,110.043,114.264Zm2.8,2.333a1.444,1.444,0,0,0-.414.064,7.27,7.27,0,0,1-4.77,0,1.443,1.443,0,0,0-.414-.064,6.5,6.5,0,0,0-5.744,3.487,11.165,11.165,0,0,0,17.087,0A6.5,6.5,0,0,0,112.842,116.6Z" transform="translate(-95.581 -90.402)"/></g></svg>